<?xml version="1.0" encoding="UTF-8"?>
<svg version="1.1" xmlns="http://www.w3.org/2000/svg" width="296" height="296" viewBox="0 0 296 296">
<rect x="0" y="0" width="296" height="296" fill="#FFFFFF"/>
<path d="M0 0 C7.52191363 4.59820162 12.97127451 11.64036054 18.6171875 18.28125 C22.19305719 22.45851595 25.86709002 26.00554227 30.20703125 29.3984375 C31.7109375 31.0390625 31.7109375 31.0390625 31.7109375 35.0390625 C30.7109375 38.0390625 30.7109375 38.0390625 29.00390625 39.13671875 C28.30910156 39.45511719 27.61429687 39.77351563 26.8984375 40.1015625 C26.21136719 40.42253906 25.52429688 40.74351563 24.81640625 41.07421875 C23.39012465 41.72782089 21.95891581 42.37075778 20.5234375 43.00390625 C17.93843525 44.48025452 17.60827692 46.27801812 16.7109375 49.0390625 C16.2159375 50.0290625 16.2159375 50.0290625 15.7109375 51.0390625 C14.90479735 57.87973745 15.30986896 62.73223989 19.51953125 68.28515625 C20.85582838 70.25236087 21.4122297 71.68207125 21.7109375 74.0390625 C21.2365625 75.0703125 20.7621875 76.1015625 20.2734375 77.1640625 C18.16574521 81.76177266 17.88543473 86.0639342 18.7109375 91.0390625 C19.83640165 93.83318356 21.12699125 96.3916902 22.6171875 99.0078125 C23.7109375 101.0390625 23.7109375 101.0390625 23.7109375 103.0390625 C24.29875 103.32523437 24.8865625 103.61140625 25.4921875 103.90625 C27.7109375 105.0390625 27.7109375 105.0390625 29.4296875 106.109375 C33.81009453 108.70303706 36.74135988 109.15566982 41.8359375 108.7890625 C47.17055945 108.57460534 47.17055945 108.57460534 49.6015625 110.6640625 C50.58706355 112.07488506 51.5247402 113.52040034 52.41015625 114.99609375 C54.8722139 118.86292904 58.41271272 120.60632091 62.7109375 122.0390625 C68.14548574 122.57186135 71.39153239 121.52823474 76.01171875 118.9140625 C77.7109375 118.0390625 77.7109375 118.0390625 79.7109375 118.0390625 C84.78112017 136.96774447 83.0377357 153.88888286 77.0234375 172.2890625 C75.51401108 177.07702801 75.2557155 181.77232595 74.9296875 186.76171875 C73.91327848 201.98970385 68.76075112 214.68955289 57.99609375 225.67578125 C55.54213157 228.21363958 53.3929103 230.890111 51.2109375 233.6640625 C45.5804743 240.58037542 39.63912431 245.95382941 32.0234375 250.6015625 C26.36682469 254.08679126 22.94162821 257.92482193 19.11328125 263.26953125 C13.0852424 271.46711483 5.82061595 276.94379236 -4.2890625 279.0390625 C-10.21515917 279.74665613 -14.07713899 279.1730744 -19.2890625 276.0390625 C-21.24609375 273.76171875 -21.24609375 273.76171875 -23.1015625 271.1015625 C-26.92272853 266.21402456 -30.80237965 263.09870443 -35.9765625 259.7265625 C-43.77669714 254.5694779 -50.35510338 248.46154479 -56.9140625 241.8515625 C-57.83791748 240.92496826 -58.76177246 239.99837402 -59.71362305 239.04370117 C-72.55824214 225.92028415 -79.82409186 214.15295603 -82.03613281 195.85302734 C-82.87647426 189.50018965 -84.53518879 183.8398638 -86.7890625 177.8515625 C-98.00024304 147.69231902 -93.62241365 117.80440547 -81.28515625 88.625 C-79.93824545 85.12831392 -78.87580076 81.56115839 -77.7890625 77.9765625 C-73.49579436 63.95782694 -67.57399088 52.58471439 -56.9140625 42.3515625 C-56.19734375 41.64451172 -55.480625 40.93746094 -54.7421875 40.20898438 C-50.64319588 36.19508012 -46.43263291 32.34283556 -42.08374023 28.6015625 C-36.50086499 23.74094468 -32.2127715 18.65056496 -28.0390625 12.5390625 C-21.36133308 2.99944904 -12.36944357 -5.19263331 0 0 Z " fill="#9E2143" transform="translate(157.2890625,4.9609375)"/>
<path d="M0 0 C0.92779515 3.08084647 0.99891511 5.61321362 0.8125 8.8125 C0.72725644 14.05885355 2.12524456 16.68786684 5 21 C5 21.66 5 22.32 5 23 C6.65 23.33 8.3 23.66 10 24 C11.13674891 27.41024674 10.69586793 29.52066036 10 33 C9.09811285 40.21509719 10.73232815 46.05895156 15 52 C17.06170752 53.29858604 17.06170752 53.29858604 19 54 C19 54.66 19 55.32 19 56 C22.63 56.99 26.26 57.98 30 59 C30.14695312 60.30324219 30.14695312 60.30324219 30.296875 61.6328125 C31.27612812 70.59523359 31.27612812 70.59523359 36 78 C37.98796602 79.2008118 39.97033571 80.20966707 42.09765625 81.140625 C44 82 44 82 47 84 C41.92576792 86.95228048 38.0217624 88.86025177 32 88 C25.74507149 85.93940952 21.77865519 82.30842217 18 77 C17.67 76.34 17.34 75.68 17 75 C16.2265625 75.04640625 15.453125 75.0928125 14.65625 75.140625 C6.02141045 75.43985211 1.04262888 74.19649725 -5.6875 68.875 C-10.7431287 62.28962378 -13.77693549 56.50307769 -13.37890625 48.32421875 C-12.8198431 44.89491385 -11.44805264 42.14794053 -10 39 C-10.19692555 35.55380279 -11.91821452 33.66468541 -14 31 C-16.85044473 26.24234861 -16.61834132 21.38949347 -16 16 C-14.35630696 11.14888433 -11.31418923 7.70890952 -7 5 C-4.67434091 4.15210346 -2.41822348 3.56899376 0 3 C0 2.01 0 1.02 0 0 Z " fill="#F5D242" transform="translate(188,40)"/>
<path d="M0 0 C0.8971875 1.36125 0.8971875 1.36125 1.8125 2.75 C4.92863074 7.37967996 8.70492989 10.23497663 14 12 C19.43454824 12.53279885 22.68059489 11.48917224 27.30078125 8.875 C29 8 29 8 31 8 C31.495 13.94 31.495 13.94 32 20 C31.01 20.33 30.02 20.66 29 21 C28.505 17.535 28.505 17.535 28 14 C26.02 14 24.04 14 22 14 C22 14.66 22 15.32 22 16 C13.9089317 16.40455342 13.9089317 16.40455342 10 13 C8.205625 12.2884375 8.205625 12.2884375 6.375 11.5625 C2.80747142 9.9108664 2.37639935 9.44099837 1 6 C0.01 5.67 -0.98 5.34 -2 5 C-1.67 3.68 -1.34 2.36 -1 1 C-4.63 1 -8.26 1 -12 1 C-12 0.67 -12 0.34 -12 0 C-2.625 -1.40625 -2.625 -1.40625 0 0 Z " fill="#8D2630" transform="translate(206,115)"/>
<path d="M0 0 C0.33 0 0.66 0 1 0 C1.01417969 0.845625 1.02835938 1.69125 1.04296875 2.5625 C1.32544957 9.28096276 1.87048235 13.87964962 5.84765625 19.35546875 C7.37517951 21.53542567 7.92415997 23.34559912 8 26 C7.34 26.99 6.68 27.98 6 29 C5.72521627 31.22485741 5.72521627 31.22485741 5.8046875 33.66796875 C5.81113281 34.56064453 5.81757813 35.45332031 5.82421875 36.37304688 C5.84097656 37.30181641 5.85773438 38.23058594 5.875 39.1875 C5.88853516 40.59805664 5.88853516 40.59805664 5.90234375 42.03710938 C5.92590944 44.35832968 5.95880884 46.67903644 6 49 C1.70688567 43.5869428 1.37549085 38.73650858 2 32 C2.70703125 29.9296875 2.70703125 29.9296875 3.5625 28.125 C5.18531635 25.24060082 5.18531635 25.24060082 4.875 22.8125 C3.82628403 20.64015977 2.48370271 18.89913947 1 17 C-1.0126502 13.713154 -1.24425042 11.20307412 -1.1875 7.375 C-1.18105469 6.41335937 -1.17460937 5.45171875 -1.16796875 4.4609375 C-1 2 -1 2 0 0 Z " fill="#EFB454" transform="translate(173,54)"/>
<path d="M0 0 C0.66 0.33 1.32 0.66 2 1 C-1.35824879 10.2311283 -7.56085396 16.24225593 -16 21 C-16.60972656 21.38027344 -17.21945313 21.76054687 -17.84765625 22.15234375 C-20.86878327 23.3421524 -23.51837357 23.18963253 -26.75 23.125 C-27.92046875 23.10695313 -29.0909375 23.08890625 -30.296875 23.0703125 C-31.18890625 23.04710937 -32.0809375 23.02390625 -33 23 C-29.78817851 21.09391902 -27.46117397 20.77733753 -23.75 20.875 C-22.85796875 20.89304687 -21.9659375 20.91109375 -21.046875 20.9296875 C-20.37140625 20.95289063 -19.6959375 20.97609375 -19 21 C-18.67 20.01 -18.34 19.02 -18 18 C-17.01 18.33 -16.02 18.66 -15 19 C-15 18.01 -15 17.02 -15 16 C-13.68 16 -12.36 16 -11 16 C-11 15.34 -11 14.68 -11 14 C-10.195625 13.566875 -9.39125 13.13375 -8.5625 12.6875 C-5.75717669 11.23212941 -5.75717669 11.23212941 -5.1875 8.3125 C-5.0946875 7.1678125 -5.0946875 7.1678125 -5 6 C-4.01 6 -3.02 6 -2 6 C-1.34 4.02 -0.68 2.04 0 0 Z " fill="#83253C" transform="translate(178,260)"/>
<path d="M0 0 C0.66 0.66 1.32 1.32 2 2 C-3.91966981 5.39832897 -7.00455008 7.12954537 -14 7 C-12.56521739 2.45652174 -12.56521739 2.45652174 -10.375 0.6875 C-6.78202725 -0.35257106 -3.74326202 -0.24150078 0 0 Z " fill="#901C3A" transform="translate(114,78)"/>
<path d="M0 0 C0.66 0 1.32 0 2 0 C2.33 6.93 2.66 13.86 3 21 C3.66 21 4.32 21 5 21 C5.042721 22.66611905 5.04063832 24.33382885 5 26 C4.67 26.33 4.34 26.66 4 27 C3.63239269 29.32817964 3.29758419 31.6618385 3 34 C2.67 34 2.34 34 2 34 C-0.1142071 22.39838312 -0.20923895 11.55463979 0 0 Z " fill="#983453" transform="translate(64,136)"/>
<path d="M0 0 C4.455 0.99 4.455 0.99 9 2 C9.14695313 3.30324219 9.14695313 3.30324219 9.296875 4.6328125 C10.34376705 12.70110126 11.40026391 17.89113701 17.75 23.375 C18.4925 23.91125 19.235 24.4475 20 25 C15.93205257 24.37416193 13.14348517 22.60842386 10 20 C6.93406439 14.8597139 6.68652656 9.85150425 7 4 C6.1028125 3.7834375 6.1028125 3.7834375 5.1875 3.5625 C3.43849596 3.1127561 1.71322977 2.57107659 0 2 C0 1.34 0 0.68 0 0 Z " fill="#EDD863" transform="translate(209,97)"/>
<path d="M0 0 C2.48012682 1.14467392 4.43127221 2.33493104 6.60546875 4.0234375 C11.34677692 6.78419922 15.60076756 6.76485322 20.98632812 6.95703125 C23.19921875 7.1171875 23.19921875 7.1171875 27 8 C29.01953125 11.0703125 29.01953125 11.0703125 30 14 C29.01 14 28.02 14 27 14 C26.34 12.68 25.68 11.36 25 10 C24.2265625 10.04640625 23.453125 10.0928125 22.65625 10.140625 C14.86500359 10.41061869 9.45159945 9.74413255 3.40234375 4.65625 C2 3.3125 2 3.3125 0 1 C0 0.67 0 0.34 0 0 Z " fill="#EBB250" transform="translate(180,105)"/>
<path d="M0 0 C1.06723961 3.46222615 1.10173486 6.64039266 1.0625 10.25 C1.05347656 11.32765625 1.04445312 12.4053125 1.03515625 13.515625 C1.02355469 14.33546875 1.01195312 15.1553125 1 16 C-2.1638148 13.03866935 -3.5139707 11.37426366 -4 7 C-4.78375 7.495 -5.5675 7.99 -6.375 8.5 C-9 10 -9 10 -11 10 C-11.33 11.65 -11.66 13.3 -12 15 C-12.66 14.67 -13.32 14.34 -14 14 C-12.64224132 9.55642615 -10.90116959 7.51408707 -7 5 C-4.67499927 4.14621342 -2.41973298 3.56934894 0 3 C0 2.01 0 1.02 0 0 Z " fill="#F0C456" transform="translate(188,40)"/>
<path d="M0 0 C1.65 0 3.3 0 5 0 C1.87741538 3.45127773 -1.59708013 5.53236004 -6 7 C-6.71727778 8.64551962 -7.38325228 10.31422289 -8 12 C-8.66 12.66 -9.32 13.32 -10 14 C-10.33 11.36 -10.66 8.72 -11 6 C-9.5459375 5.5978125 -9.5459375 5.5978125 -8.0625 5.1875 C-6.5465625 4.5996875 -6.5465625 4.5996875 -5 4 C-4.67 3.01 -4.34 2.02 -4 1 C-2.68 1.33 -1.36 1.66 0 2 C0 1.34 0 0.68 0 0 Z " fill="#8D212C" transform="translate(182,42)"/>
<path d="M0 0 C2.48464251 2.48464251 2.257605 3.96431064 2.27734375 7.359375 C2.26832031 8.06578125 2.25929687 8.7721875 2.25 9.5 C2.24613281 10.21671875 2.24226562 10.9334375 2.23828125 11.671875 C2.1475599 17.27643843 1.46034479 22.57586223 0 28 C-1.76462683 24.91190305 -2 23.76687864 -2 20 C-1.34 20 -0.68 20 0 20 C0 13.4 0 6.8 0 0 Z " fill="#8D3751" transform="translate(238,137)"/>
<path d="M0 0 C1.98 0.99 1.98 0.99 4 2 C3.835 3.134375 3.67 4.26875 3.5 5.4375 C3.32402497 6.95728439 3.15777666 8.4782187 3 10 C2.88011719 11.06347656 2.88011719 11.06347656 2.7578125 12.1484375 C2.34012128 18.95434744 4.88951038 24.05674305 8 30 C7.34 30 6.68 30 6 30 C6 29.34 6 28.68 6 28 C5.34 28 4.68 28 4 28 C1.95775121 25.86849967 1.06728145 24.50597677 0.67529297 21.55810547 C0.69736816 20.67010254 0.71944336 19.78209961 0.7421875 18.8671875 C0.75636719 17.89652344 0.77054688 16.92585938 0.78515625 15.92578125 C0.81480469 14.91902344 0.84445313 13.91226563 0.875 12.875 C0.91825642 10.87248203 0.95752051 8.86987258 0.9921875 6.8671875 C1.01651855 5.98144043 1.04084961 5.09569336 1.06591797 4.18310547 C1.1515455 1.95307824 1.1515455 1.95307824 0 0 Z " fill="#F2E284" transform="translate(195,63)"/>
<path d="M0 0 C0.66 0.33 1.32 0.66 2 1 C0.6062718 5.43458973 -1.60582235 7.87378374 -5 11 C-5 9.35 -5 7.7 -5 6 C-4.01 6 -3.02 6 -2 6 C-1.34 4.02 -0.68 2.04 0 0 Z " fill="#801F3A" transform="translate(178,260)"/>
<path d="M0 0 C0.99 0 1.98 0 3 0 C2.25 6.75 2.25 6.75 0 9 C-0.87890625 2.84765625 -0.87890625 2.84765625 -1 1 C-0.67 0.67 -0.34 0.34 0 0 Z " fill="#82223B" transform="translate(225,207)"/>
<path d="M0 0 C0.33 0.66 0.66 1.32 1 2 C0.67 2.99 0.34 3.98 0 5 C-1.98 5.33 -3.96 5.66 -6 6 C-2.25 1.125 -2.25 1.125 0 0 Z " fill="#9B3A57" transform="translate(111,38)"/>
</svg>
