<?xml version="1.0" encoding="UTF-8"?>
<svg xmlns="http://www.w3.org/2000/svg" width="1200" height="360" viewBox="0 0 1200 360" role="img" aria-labelledby="title desc">
  <title id="title">爱吃红薯</title>
  <desc id="desc">爱吃红薯品牌横版字标与 slogan</desc>
  <rect width="1200" height="360" rx="48" fill="#FFF8F3"/>
  <g transform="translate(46 46) scale(.26)">
    <rect width="1024" height="1024" rx="220" fill="#FFF8F3"/>
    <path fill="#FF2442" d="M610 154c92 10 154 91 171 190 25 144-35 305-145 420-92 96-216 133-315 67-91-60-126-173-101-288 28-128 99-244 198-327 73-61 137-72 192-62Z"/>
    <path fill="#FFC94A" d="M603 159c-10 57 19 112 72 139 27 14 59 20 91 17-20 47-70 75-123 69-78-8-132-77-117-153 10-48 40-83 77-100Z"/>
    <path fill="#FFC94A" d="m774 112 16 39 39 16-39 16-16 39-16-39-39-16 39-16 16-39Z"/>
  </g>
  <text x="340" y="171" fill="#111111" font-size="104" font-family="-apple-system, BlinkMacSystemFont, 'PingFang SC', 'Microsoft YaHei', sans-serif" font-weight="800" letter-spacing="6">爱吃红薯</text>
  <text x="344" y="246" fill="#718096" font-size="34" font-family="-apple-system, BlinkMacSystemFont, 'PingFang SC', 'Microsoft YaHei', sans-serif" letter-spacing="9">用 AI 记录更美的生活</text>
</svg>
